<?xml version="1.0" encoding="UTF-8" ?>
<!DOCTYPE svg PUBLIC "-//W3C//DTD SVG 1.1//EN" "http://www.w3.org/Graphics/SVG/1.1/DTD/svg11.dtd">
<svg width="225pt" height="225pt" viewBox="0 0 225 225" version="1.1" xmlns="http://www.w3.org/2000/svg">
<g id="#ffffffff">
<path fill="#ffffff" opacity="1.00" d=" M 0.00 0.00 L 123.74 0.00 C 120.27 0.68 117.40 4.13 118.35 7.73 C 118.84 10.67 121.61 12.57 124.44 12.86 C 143.53 16.25 161.69 24.92 176.24 37.75 C 195.01 53.79 207.91 76.52 212.08 100.86 C 212.43 104.58 216.23 107.42 219.89 106.39 C 223.17 105.85 225.22 102.30 224.54 99.14 C 217.77 56.05 185.27 18.49 143.96 4.81 C 137.75 2.67 131.35 1.17 124.90 0.00 L 225.00 0.00 L 225.00 225.00 L 162.52 225.00 C 172.51 224.79 182.56 220.85 189.23 213.26 C 193.93 207.64 199.64 202.99 204.56 197.58 C 208.62 193.06 211.46 187.09 211.12 180.91 C 210.90 174.98 207.83 169.53 203.69 165.41 C 195.00 156.72 186.36 147.98 177.65 139.30 C 172.83 134.44 165.95 131.21 159.01 132.36 C 153.79 132.98 149.11 135.85 145.47 139.53 C 140.46 144.42 135.56 149.42 130.56 154.31 C 119.38 149.27 109.67 141.53 100.71 133.26 C 88.68 121.82 77.28 109.16 70.14 94.02 C 75.02 89.60 79.52 84.79 84.21 80.19 C 88.40 76.09 91.95 70.90 92.52 64.92 C 93.35 57.83 89.99 50.87 84.90 46.09 C 76.35 37.68 68.10 28.96 59.51 20.58 C 54.73 15.64 47.87 12.31 40.89 13.20 C 35.63 13.72 30.72 16.32 27.00 20.02 C 21.52 25.51 16.07 31.05 10.58 36.54 C 5.07 41.99 1.38 49.32 0.63 57.06 C -0.44 67.58 1.30 78.21 4.60 88.20 C 13.34 115.07 29.20 139.08 47.86 160.08 C 70.07 184.89 97.74 204.97 128.63 217.51 C 138.58 221.61 149.14 224.04 159.85 225.00 L 0.00 225.00 L 0.00 0.00 M 116.47 47.98 C 116.63 51.22 119.53 53.33 122.56 53.63 C 146.21 57.75 166.23 77.31 170.90 100.85 C 171.47 103.31 171.82 106.45 174.42 107.63 C 176.34 108.85 178.66 108.43 180.75 108.02 C 182.21 106.61 183.94 105.05 184.06 102.88 C 180.33 71.53 153.33 44.58 121.98 40.88 C 118.63 41.26 115.90 44.59 116.47 47.98 Z" />
<path fill="#ffffff" opacity="1.00" d=" M 40.23 26.26 C 43.71 24.93 47.52 26.36 49.99 28.96 C 58.45 37.18 66.57 45.73 74.99 54.00 C 77.40 56.48 80.32 59.36 80.00 63.13 C 80.01 65.95 78.05 68.25 76.22 70.19 C 70.74 75.69 65.25 81.17 59.64 86.53 C 56.69 89.24 56.18 93.78 57.83 97.33 C 63.19 110.54 72.30 121.77 81.74 132.29 C 94.27 145.69 108.49 157.89 125.11 165.90 C 128.77 168.52 134.02 168.48 137.35 165.33 C 142.07 160.75 146.65 156.02 151.34 151.39 C 153.88 148.90 156.28 145.88 159.88 144.94 C 162.93 144.06 166.06 145.67 168.16 147.82 C 177.01 156.66 185.86 165.51 194.71 174.36 C 196.79 176.36 198.49 179.00 198.56 181.97 C 198.44 184.94 196.71 187.54 194.70 189.60 C 189.76 194.72 184.47 199.49 179.75 204.82 C 175.98 209.02 170.57 211.81 164.90 212.11 C 154.46 212.82 144.18 209.87 134.48 206.30 C 107.17 195.32 82.46 178.14 62.19 156.84 C 41.05 134.40 23.09 107.95 14.85 77.95 C 12.59 67.83 10.90 55.59 18.17 47.04 C 22.76 42.02 27.75 37.39 32.49 32.51 C 34.87 30.22 37.02 27.42 40.23 26.26 Z" />
</g>
<g id="#000000ff">
<path fill="#000000" opacity="1.00" d=" M 123.74 0.00 L 124.90 0.00 C 131.35 1.17 137.75 2.67 143.96 4.81 C 185.27 18.49 217.77 56.05 224.54 99.14 C 225.22 102.30 223.17 105.85 219.89 106.39 C 216.23 107.42 212.43 104.58 212.08 100.86 C 207.91 76.52 195.01 53.79 176.24 37.75 C 161.69 24.92 143.53 16.25 124.44 12.86 C 121.61 12.57 118.84 10.67 118.35 7.73 C 117.40 4.13 120.27 0.68 123.74 0.00 Z" />
<path fill="#000000" opacity="1.00" d=" M 27.00 20.02 C 30.72 16.32 35.63 13.72 40.89 13.20 C 47.87 12.31 54.73 15.64 59.51 20.58 C 68.10 28.96 76.35 37.68 84.90 46.09 C 89.99 50.87 93.35 57.83 92.52 64.92 C 91.95 70.90 88.40 76.09 84.21 80.19 C 79.52 84.79 75.02 89.60 70.14 94.02 C 77.28 109.16 88.68 121.82 100.71 133.26 C 109.67 141.53 119.38 149.27 130.56 154.31 C 135.56 149.42 140.46 144.42 145.47 139.53 C 149.11 135.85 153.79 132.98 159.01 132.36 C 165.95 131.21 172.83 134.44 177.65 139.30 C 186.36 147.98 195.00 156.72 203.69 165.41 C 207.83 169.53 210.90 174.98 211.12 180.91 C 211.46 187.09 208.62 193.06 204.56 197.58 C 199.64 202.99 193.93 207.64 189.23 213.26 C 182.56 220.85 172.51 224.79 162.52 225.00 L 159.85 225.00 C 149.14 224.04 138.58 221.61 128.63 217.51 C 97.74 204.97 70.07 184.89 47.86 160.08 C 29.20 139.08 13.34 115.07 4.60 88.20 C 1.30 78.21 -0.44 67.58 0.63 57.06 C 1.38 49.32 5.07 41.99 10.58 36.54 C 16.07 31.05 21.52 25.51 27.00 20.02 M 40.23 26.26 C 37.02 27.42 34.87 30.22 32.49 32.51 C 27.75 37.39 22.76 42.02 18.17 47.04 C 10.90 55.59 12.59 67.83 14.85 77.95 C 23.09 107.95 41.05 134.40 62.19 156.84 C 82.46 178.14 107.17 195.32 134.48 206.30 C 144.18 209.87 154.46 212.82 164.90 212.11 C 170.57 211.81 175.98 209.02 179.75 204.82 C 184.47 199.49 189.76 194.72 194.70 189.60 C 196.71 187.54 198.44 184.94 198.56 181.97 C 198.49 179.00 196.79 176.36 194.71 174.36 C 185.86 165.51 177.01 156.66 168.16 147.82 C 166.06 145.67 162.93 144.06 159.88 144.94 C 156.28 145.88 153.88 148.90 151.34 151.39 C 146.65 156.02 142.07 160.75 137.35 165.33 C 134.02 168.48 128.77 168.52 125.11 165.90 C 108.49 157.89 94.27 145.69 81.74 132.29 C 72.30 121.77 63.19 110.54 57.83 97.33 C 56.18 93.78 56.69 89.24 59.64 86.53 C 65.25 81.17 70.74 75.69 76.22 70.19 C 78.05 68.25 80.01 65.95 80.00 63.13 C 80.32 59.36 77.40 56.48 74.99 54.00 C 66.57 45.73 58.45 37.18 49.99 28.96 C 47.52 26.36 43.71 24.93 40.23 26.26 Z" />
<path fill="#000000" opacity="1.00" d=" M 116.47 47.98 C 115.90 44.59 118.63 41.26 121.98 40.88 C 153.33 44.58 180.33 71.53 184.06 102.88 C 183.94 105.05 182.21 106.61 180.75 108.02 C 178.66 108.43 176.34 108.85 174.42 107.63 C 171.82 106.45 171.47 103.31 170.90 100.85 C 166.23 77.31 146.21 57.75 122.56 53.63 C 119.53 53.33 116.63 51.22 116.47 47.98 Z" />
</g>
</svg>
