<?xml version="1.0" encoding="UTF-8" ?>
<!DOCTYPE svg PUBLIC "-//W3C//DTD SVG 1.1//EN" "http://www.w3.org/Graphics/SVG/1.1/DTD/svg11.dtd">
<svg width="225pt" height="225pt" viewBox="0 0 225 225" version="1.1" xmlns="http://www.w3.org/2000/svg">
<g id="#fafafaff">
<path fill="#fafafa" opacity="1.00" d=" M 0.00 0.00 L 225.00 0.00 L 225.00 41.19 C 223.42 33.92 216.48 28.50 209.04 28.79 C 144.67 28.80 80.31 28.80 15.94 28.79 C 8.59 28.50 1.90 33.77 0.00 40.79 L 0.00 0.00 Z" />
<path fill="#fafafa" opacity="1.00" d=" M 25.43 41.69 C 83.81 41.71 142.20 41.71 200.59 41.69 C 180.16 58.86 160.03 76.41 139.70 93.71 C 137.49 95.56 135.36 97.49 133.26 99.47 L 132.77 99.51 C 126.40 105.48 119.48 110.83 113.00 116.69 C 106.27 110.84 99.50 105.03 92.70 99.26 C 90.47 97.54 88.53 95.48 86.32 93.73 C 74.46 83.56 62.61 73.36 50.70 63.25 C 42.27 56.08 34.07 48.63 25.43 41.69 Z" />
<path fill="#fafafa" opacity="1.00" d=" M 12.54 53.01 C 28.13 65.52 43.32 78.54 58.68 91.34 C 71.24 101.77 83.66 112.39 96.32 122.70 C 98.85 124.75 101.10 127.12 103.53 129.28 C 104.99 130.26 106.51 131.13 108.08 131.93 C 111.47 133.00 115.84 133.36 118.94 131.50 C 119.20 131.51 119.70 131.53 119.95 131.54 C 132.88 119.55 146.75 108.64 160.08 97.10 C 177.54 82.37 195.03 67.69 212.43 52.89 C 212.79 93.56 212.43 134.25 212.61 174.92 C 212.19 174.79 211.34 174.51 210.92 174.38 C 198.55 160.60 185.50 147.39 173.19 133.56 L 172.46 133.52 L 172.45 132.79 C 172.16 132.54 171.57 132.03 171.27 131.77 C 167.25 127.11 162.76 122.86 158.66 118.27 C 156.26 115.30 151.67 114.42 148.50 116.68 C 146.21 118.00 145.50 120.67 144.63 122.97 C 145.31 124.94 145.71 127.14 147.19 128.71 C 159.51 142.41 171.95 156.01 184.28 169.71 C 187.96 174.37 192.64 178.21 195.92 183.19 C 141.05 183.26 86.18 183.14 31.32 183.25 C 31.39 182.92 31.52 182.27 31.59 181.94 C 38.34 174.89 44.64 167.43 51.28 160.27 C 60.77 149.75 70.33 139.27 79.80 128.72 C 82.80 125.49 82.58 119.66 78.95 116.99 C 76.00 114.60 71.35 114.96 68.81 117.78 C 63.84 123.15 58.63 128.32 53.66 133.70 C 53.37 133.96 52.79 134.47 52.49 134.72 L 52.44 135.18 C 40.38 147.53 28.60 160.19 16.71 172.71 C 16.45 172.95 15.94 173.41 15.68 173.65 C 15.16 175.06 13.76 175.56 12.46 176.04 C 12.56 135.03 12.41 94.02 12.54 53.01 Z" />
<path fill="#fafafa" opacity="1.00" d=" M 0.00 183.31 C 1.26 191.30 9.19 196.55 16.99 196.19 C 80.66 196.20 144.32 196.20 207.99 196.19 C 215.70 196.54 223.27 191.51 225.00 183.81 L 225.00 225.00 L 0.00 225.00 L 0.00 183.31 Z" />
</g>
<g id="#000000ff">
<path fill="#000000" opacity="1.00" d=" M 0.00 40.79 C 1.90 33.77 8.59 28.50 15.94 28.79 C 80.31 28.80 144.67 28.80 209.04 28.79 C 216.48 28.50 223.42 33.92 225.00 41.19 L 225.00 183.81 C 223.27 191.51 215.70 196.54 207.99 196.19 C 144.32 196.20 80.66 196.20 16.99 196.19 C 9.19 196.55 1.26 191.30 0.00 183.31 L 0.00 40.79 M 25.43 41.69 C 34.07 48.63 42.27 56.08 50.70 63.25 C 62.61 73.36 74.46 83.56 86.32 93.73 C 88.53 95.48 90.47 97.54 92.70 99.26 C 99.50 105.03 106.27 110.84 113.00 116.69 C 119.48 110.83 126.40 105.48 132.77 99.51 L 133.26 99.47 C 135.36 97.49 137.49 95.56 139.70 93.71 C 160.03 76.41 180.16 58.86 200.59 41.69 C 142.20 41.71 83.81 41.71 25.43 41.69 M 12.54 53.01 C 12.41 94.02 12.56 135.03 12.46 176.04 C 13.76 175.56 15.16 175.06 15.68 173.65 C 15.94 173.41 16.45 172.95 16.71 172.71 C 28.60 160.19 40.38 147.53 52.44 135.18 L 52.49 134.72 C 52.79 134.47 53.37 133.96 53.66 133.70 C 58.63 128.32 63.84 123.15 68.81 117.78 C 71.35 114.96 76.00 114.60 78.95 116.99 C 82.58 119.66 82.80 125.49 79.80 128.72 C 70.33 139.27 60.77 149.75 51.28 160.27 C 44.64 167.43 38.34 174.89 31.59 181.94 C 31.52 182.27 31.39 182.92 31.32 183.25 C 86.18 183.14 141.05 183.26 195.92 183.19 C 192.64 178.21 187.96 174.37 184.28 169.71 C 171.95 156.01 159.51 142.41 147.19 128.71 C 145.71 127.14 145.31 124.94 144.63 122.97 C 145.50 120.67 146.21 118.00 148.50 116.68 C 151.67 114.42 156.26 115.30 158.66 118.27 C 162.76 122.86 167.25 127.11 171.27 131.77 C 171.57 132.03 172.16 132.54 172.45 132.79 L 172.46 133.52 L 173.19 133.56 C 185.50 147.39 198.55 160.60 210.92 174.38 C 211.34 174.51 212.19 174.79 212.61 174.92 C 212.43 134.25 212.79 93.56 212.43 52.89 C 195.03 67.69 177.54 82.37 160.08 97.10 C 146.75 108.64 132.88 119.55 119.95 131.54 C 119.70 131.53 119.20 131.51 118.94 131.50 C 115.84 133.36 111.47 133.00 108.08 131.93 C 106.51 131.13 104.99 130.26 103.53 129.28 C 101.10 127.12 98.85 124.75 96.32 122.70 C 83.66 112.39 71.24 101.77 58.68 91.34 C 43.32 78.54 28.13 65.52 12.54 53.01 Z" />
</g>
</svg>
