<?xml version="1.0" encoding="UTF-8" ?>
<!DOCTYPE svg PUBLIC "-//W3C//DTD SVG 1.1//EN" "http://www.w3.org/Graphics/SVG/1.1/DTD/svg11.dtd">
<svg width="225pt" height="225pt" viewBox="0 0 225 225" version="1.1" xmlns="http://www.w3.org/2000/svg">
<g id="#ffffffff">
<path fill="#ffffff" opacity="1.00" d=" M 38.25 0.00 L 44.51 0.00 C 42.56 0.90 40.27 2.07 38.20 0.80 L 38.25 0.00 Z" />
<path fill="#ffffff" opacity="1.00" d=" M 179.46 0.00 L 186.41 0.00 L 186.92 0.46 C 184.72 2.49 181.79 0.82 179.46 0.00 Z" />
<path fill="#ffffff" opacity="1.00" d=" M 56.50 30.72 C 66.25 27.58 77.20 35.76 77.36 45.89 C 78.03 55.94 67.86 65.15 57.92 62.82 C 48.77 61.32 42.47 51.04 45.17 42.20 C 46.64 36.73 51.06 32.26 56.50 30.72 Z" />
<path fill="#ffffff" opacity="1.00" d=" M 0.00 38.60 L 0.46 38.08 C 2.50 40.28 0.81 43.21 0.00 45.54 L 0.00 38.60 Z" />
<path fill="#ffffff" opacity="1.00" d=" M 224.18 38.16 L 225.00 38.17 L 225.00 45.40 C 224.30 43.27 223.22 41.08 223.71 38.77 L 224.18 38.16 Z" />
<path fill="#ffffff" opacity="1.00" d=" M 46.90 75.00 C 56.27 75.00 65.63 75.00 75.00 75.00 C 75.00 109.37 75.00 143.73 75.00 178.10 C 65.63 178.10 56.27 178.10 46.90 178.10 C 46.90 143.73 46.90 109.37 46.90 75.00 Z" />
<path fill="#ffffff" opacity="1.00" d=" M 93.76 75.00 C 103.14 75.00 112.52 75.00 121.90 75.00 C 121.90 80.50 121.89 85.99 121.91 91.48 C 132.70 73.18 161.54 69.30 176.63 84.34 C 181.39 88.81 184.30 94.85 186.01 101.07 C 186.72 105.02 187.56 108.97 187.48 113.00 C 187.52 134.70 187.49 156.40 187.50 178.10 C 178.12 178.09 168.74 178.12 159.36 178.08 C 159.38 164.39 159.36 150.71 159.36 137.02 C 159.27 130.27 159.86 123.43 158.25 116.80 C 157.84 115.51 157.20 114.32 156.81 113.03 C 154.33 108.03 149.65 103.99 144.06 103.05 C 136.06 101.49 127.83 106.57 124.52 113.79 C 122.32 118.18 121.96 123.16 121.89 127.98 C 121.90 144.69 121.90 161.39 121.90 178.10 C 112.52 178.10 103.14 178.10 93.77 178.10 C 93.76 143.73 93.77 109.37 93.76 75.00 Z" />
<path fill="#ffffff" opacity="1.00" d=" M 0.00 179.64 C 0.71 181.75 1.79 183.92 1.29 186.22 L 0.82 186.84 L 0.00 186.83 L 0.00 179.64 Z" />
<path fill="#ffffff" opacity="1.00" d=" M 224.54 186.91 C 222.50 184.72 224.16 181.80 225.00 179.49 L 225.00 186.39 L 224.54 186.91 Z" />
<path fill="#ffffff" opacity="1.00" d=" M 38.07 224.54 C 40.27 222.50 43.20 224.17 45.53 225.00 L 38.59 225.00 L 38.07 224.54 Z" />
<path fill="#ffffff" opacity="1.00" d=" M 179.69 225.00 C 181.78 224.27 183.93 223.21 186.21 223.71 L 186.84 224.18 L 186.84 225.00 L 179.69 225.00 Z" />
</g>
<g id="#000000ff">
<path fill="#000000" opacity="1.00" d=" M 44.51 0.00 L 179.46 0.00 C 181.79 0.82 184.72 2.49 186.92 0.46 L 187.63 1.06 C 188.57 2.20 189.70 2.45 191.03 1.80 C 198.69 3.85 205.63 7.99 211.34 13.46 C 211.39 13.51 211.49 13.61 211.54 13.66 C 217.00 19.37 221.18 26.32 223.18 34.00 C 222.52 35.44 222.88 36.55 224.25 37.33 L 224.18 38.16 L 223.71 38.77 C 223.22 41.08 224.30 43.27 225.00 45.40 L 225.00 179.49 C 224.16 181.80 222.50 184.72 224.54 186.91 L 223.93 187.64 C 222.79 188.58 222.55 189.71 223.20 191.03 C 221.15 198.69 217.00 205.62 211.55 211.34 C 211.50 211.39 211.40 211.50 211.34 211.55 C 205.63 217.00 198.69 221.16 191.03 223.19 C 189.58 222.51 188.48 222.86 187.70 224.24 L 186.84 224.18 L 186.21 223.71 C 183.93 223.21 181.78 224.27 179.69 225.00 L 45.53 225.00 C 43.20 224.17 40.27 222.50 38.07 224.54 L 37.35 223.93 C 36.41 222.79 35.28 222.54 33.95 223.19 C 26.30 221.14 19.37 216.99 13.66 211.55 C 13.61 211.50 13.51 211.39 13.45 211.34 C 8.01 205.62 3.83 198.69 1.81 191.02 C 2.48 189.58 2.13 188.47 0.76 187.69 L 0.82 186.84 L 1.29 186.22 C 1.79 183.92 0.71 181.75 0.00 179.64 L 0.00 45.54 C 0.81 43.21 2.50 40.28 0.46 38.08 L 1.05 37.37 C 2.20 36.43 2.45 35.30 1.81 33.98 C 3.84 26.31 8.00 19.37 13.45 13.66 C 13.50 13.61 13.60 13.51 13.65 13.46 C 19.37 8.01 26.31 3.81 33.99 1.83 C 35.44 2.48 36.55 2.12 37.32 0.74 L 38.20 0.80 C 40.27 2.07 42.56 0.90 44.51 0.00 M 56.50 30.72 C 51.06 32.26 46.64 36.73 45.17 42.20 C 42.47 51.04 48.77 61.32 57.92 62.82 C 67.86 65.15 78.03 55.94 77.36 45.89 C 77.20 35.76 66.25 27.58 56.50 30.72 M 46.90 75.00 C 46.90 109.37 46.90 143.73 46.90 178.10 C 56.27 178.10 65.63 178.10 75.00 178.10 C 75.00 143.73 75.00 109.37 75.00 75.00 C 65.63 75.00 56.27 75.00 46.90 75.00 M 93.76 75.00 C 93.77 109.37 93.76 143.73 93.77 178.10 C 103.14 178.10 112.52 178.10 121.90 178.10 C 121.90 161.39 121.90 144.69 121.89 127.98 C 121.96 123.16 122.32 118.18 124.52 113.79 C 127.83 106.57 136.06 101.49 144.06 103.05 C 149.65 103.99 154.33 108.03 156.81 113.03 C 157.20 114.32 157.84 115.51 158.25 116.80 C 159.86 123.43 159.27 130.27 159.36 137.02 C 159.36 150.71 159.38 164.39 159.36 178.08 C 168.74 178.12 178.12 178.09 187.50 178.10 C 187.49 156.40 187.52 134.70 187.48 113.00 C 187.56 108.97 186.72 105.02 186.01 101.07 C 184.30 94.85 181.39 88.81 176.63 84.34 C 161.54 69.30 132.70 73.18 121.91 91.48 C 121.89 85.99 121.90 80.50 121.90 75.00 C 112.52 75.00 103.14 75.00 93.76 75.00 Z" />
</g>
<g id="#7d7d7df7">
<path fill="#7d7d7d" opacity="0.97" d=" M 33.99 1.83 C 34.91 0.86 36.02 0.50 37.32 0.74 C 36.55 2.12 35.44 2.48 33.99 1.83 Z" />
<path fill="#7d7d7d" opacity="0.97" d=" M 187.63 1.06 C 188.92 0.52 190.05 0.77 191.03 1.80 C 189.70 2.45 188.57 2.20 187.63 1.06 Z" />
<path fill="#7d7d7d" opacity="0.97" d=" M 13.55 13.55 L 13.65 13.46 C 13.60 13.51 13.50 13.61 13.45 13.66 L 13.55 13.55 Z" />
<path fill="#7d7d7d" opacity="0.97" d=" M 211.34 13.46 L 211.45 13.55 L 211.54 13.66 C 211.49 13.61 211.39 13.51 211.34 13.46 Z" />
<path fill="#7d7d7d" opacity="0.97" d=" M 1.05 37.37 C 0.52 36.08 0.77 34.94 1.81 33.98 C 2.45 35.30 2.20 36.43 1.05 37.37 Z" />
<path fill="#7d7d7d" opacity="0.97" d=" M 223.18 34.00 C 224.14 34.92 224.49 36.03 224.25 37.33 C 222.88 36.55 222.52 35.44 223.18 34.00 Z" />
<path fill="#7d7d7d" opacity="0.97" d=" M 0.76 187.69 C 2.13 188.47 2.48 189.58 1.81 191.02 C 0.86 190.09 0.51 188.98 0.76 187.69 Z" />
<path fill="#7d7d7d" opacity="0.97" d=" M 223.20 191.03 C 222.55 189.71 222.79 188.58 223.93 187.64 C 224.47 188.92 224.22 190.06 223.20 191.03 Z" />
<path fill="#7d7d7d" opacity="0.97" d=" M 13.45 211.34 C 13.51 211.39 13.61 211.50 13.66 211.55 L 13.55 211.45 L 13.45 211.34 Z" />
<path fill="#7d7d7d" opacity="0.97" d=" M 211.34 211.55 C 211.40 211.50 211.50 211.39 211.55 211.34 L 211.46 211.45 L 211.34 211.55 Z" />
<path fill="#7d7d7d" opacity="0.97" d=" M 33.95 223.19 C 35.28 222.54 36.41 222.79 37.35 223.93 C 36.06 224.47 34.93 224.22 33.95 223.19 Z" />
<path fill="#7d7d7d" opacity="0.97" d=" M 187.70 224.24 C 188.48 222.86 189.58 222.51 191.03 223.19 C 190.10 224.13 188.99 224.48 187.70 224.24 Z" />
</g>
</svg>
